<?xml version="1.0" standalone="no"?>
<!DOCTYPE svg PUBLIC "-//W3C//DTD SVG 20010904//EN"
 "http://www.w3.org/TR/2001/REC-SVG-20010904/DTD/svg10.dtd">
<svg version="1.0" xmlns="http://www.w3.org/2000/svg"
 width="64.000000pt" height="64.000000pt" viewBox="0 0 64.000000 64.000000"
 preserveAspectRatio="xMidYMid meet">

<g transform="translate(0.000000,64.000000) scale(0.100000,-0.100000)"
fill="#000000" stroke="none">
<path d="M30 605 c-19 -23 5 -45 51 -45 l39 0 0 -211 0 -211 29 -29 c20 -19
40 -29 60 -29 23 0 30 -5 33 -21 7 -49 69 -49 76 0 3 19 9 21 77 21 68 0 74
-2 77 -21 7 -49 69 -49 76 0 2 14 11 21 26 21 33 0 53 25 36 45 -10 12 -51 15
-218 17 -188 3 -207 5 -210 21 -3 16 10 17 165 17 144 0 173 3 202 18 57 31
72 71 69 186 -3 102 -2 98 -47 123 -2 1 4 9 13 18 23 23 20 42 -9 61 -30 20
-52 13 -65 -21 -7 -18 -17 -25 -35 -25 -14 0 -25 6 -25 13 0 34 -35 47 -122
47 -92 0 -118 -13 -118 -58 0 -32 18 -27 22 6 2 21 9 28 31 30 23 3 27 0 27
-22 0 -13 3 -31 6 -40 5 -14 -3 -16 -55 -16 l-61 0 0 43 c0 58 -21 77 -87 77
-33 0 -55 -5 -63 -15z m130 -238 c4 -188 8 -229 20 -237 8 -5 106 -10 218 -10
128 0 202 -4 202 -10 0 -6 -75 -10 -205 -10 -277 0 -255 -22 -255 265 l0 215
-50 0 c-28 0 -50 5 -50 10 0 7 22 10 58 8 l57 -3 5 -228z m264 201 c3 -7 7
-25 10 -40 6 -27 5 -28 -32 -28 -37 0 -37 0 -37 40 0 37 2 40 28 40 15 0 29
-6 31 -12z m176 -187 c0 -92 -2 -102 -26 -130 -35 -42 -77 -51 -246 -51 l-148
0 0 140 0 140 210 0 210 0 0 -99z m-310 -321 c0 -5 -4 -10 -10 -10 -5 0 -10 5
-10 10 0 6 5 10 10 10 6 0 10 -4 10 -10z m230 0 c0 -5 -4 -10 -10 -10 -5 0
-10 5 -10 10 0 6 5 10 10 10 6 0 10 -4 10 -10z"/>
<path d="M252 428 c-14 -14 -16 -68 -3 -68 5 0 11 12 13 28 2 16 9 27 18 27
12 0 15 -15 15 -75 0 -60 -3 -75 -15 -75 -9 0 -16 11 -18 28 -5 42 -24 32 -20
-10 3 -36 5 -38 38 -38 l35 0 3 83 c3 87 -5 112 -37 112 -9 0 -22 -5 -29 -12z"/>
<path d="M361 426 c-8 -9 -11 -45 -9 -98 3 -78 4 -83 26 -86 41 -6 52 14 52
97 0 47 -5 82 -12 89 -16 16 -43 15 -57 -2z m44 -87 c0 -59 -3 -74 -15 -74
-11 0 -16 15 -18 64 -3 71 2 95 21 88 8 -2 12 -27 12 -78z"/>
<path d="M471 426 c-8 -9 -11 -43 -9 -92 2 -60 7 -79 21 -88 12 -8 22 -8 35 0
13 9 18 28 20 88 3 81 -6 106 -38 106 -10 0 -23 -6 -29 -14z m44 -87 c0 -59
-3 -74 -15 -74 -11 0 -16 15 -18 64 -3 71 2 95 21 88 8 -2 12 -27 12 -78z"/>
</g>
</svg>
